<?xml version="1.0" standalone="no"?>
<!DOCTYPE svg PUBLIC "-//W3C//DTD SVG 20010904//EN"
 "http://www.w3.org/TR/2001/REC-SVG-20010904/DTD/svg10.dtd">
<svg version="1.0" xmlns="http://www.w3.org/2000/svg"
 width="850.000000pt" height="850.000000pt" viewBox="0 0 850.000000 850.000000"
 preserveAspectRatio="xMidYMid meet">

<g transform="translate(0.000000,850.000000) scale(0.100000,-0.100000)"
fill="#000000" stroke="none">
<path d="M4120 7204 c-138 -7 -354 -34 -469 -60 -207 -46 -533 -169 -727 -275
-148 -80 -256 -151 -402 -263 -123 -95 -478 -456 -449 -456 3 0 46 47 97 105
93 106 212 216 376 346 384 309 901 519 1395 569 161 17 621 8 759 -14 245
-39 508 -118 719 -217 58 -27 110 -48 115 -46 19 7 -272 138 -391 176 -313
101 -691 150 -1023 135z"/>
<path d="M4160 7109 c-30 -4 -128 -10 -218 -13 -90 -2 -169 -9 -175 -14 -7 -6
-32 -13 -57 -17 -24 -4 -49 -9 -54 -13 -12 -7 -93 -23 -119 -23 -9 0 -15 -5
-11 -11 4 -6 -1 -8 -16 -3 -15 5 -20 4 -16 -4 4 -6 0 -12 -8 -12 -19 -2 -26
-4 -47 -13 -9 -4 -27 -9 -40 -10 -13 -2 -37 -9 -54 -15 -16 -6 -33 -10 -36 -9
-3 2 -13 -5 -23 -14 -10 -10 -23 -18 -30 -18 -7 0 -41 -14 -77 -31 -35 -18
-70 -32 -76 -32 -7 0 -13 -5 -13 -10 0 -5 -8 -6 -17 -3 -10 4 -14 4 -11 0 4
-3 -48 -38 -115 -76 -257 -148 -428 -278 -633 -482 -188 -188 -283 -317 -385
-524 -43 -90 -77 -166 -75 -170 2 -4 300 -5 661 -2 l658 5 16 25 c76 117 413
466 539 559 l84 61 417 0 417 0 50 -31 c27 -18 157 -138 288 -268 132 -130
226 -218 209 -196 -62 80 -468 473 -510 494 -41 20 -55 21 -460 21 -345 0
-423 -3 -446 -15 -76 -39 -282 -232 -408 -382 -24 -29 -79 -93 -121 -143 -43
-50 -78 -95 -78 -100 0 -6 -227 -10 -614 -10 l-614 0 10 40 c24 95 202 340
379 523 177 184 276 269 429 370 196 128 489 277 547 277 8 0 33 9 55 20 23
11 49 20 57 20 21 0 103 29 118 42 11 9 60 19 163 34 19 3 44 9 55 14 117 51
807 58 970 10 47 -14 117 -28 200 -39 33 -5 98 -23 145 -41 47 -17 123 -45
170 -61 47 -16 108 -40 135 -53 66 -31 147 -69 215 -99 30 -14 71 -36 90 -49
19 -13 47 -29 61 -37 119 -61 417 -325 548 -486 115 -141 280 -414 281 -462
l0 -23 -224 0 c-195 0 -225 2 -230 16 -3 9 -6 92 -6 184 0 157 -1 170 -19 180
-12 6 -94 10 -196 10 l-177 0 -29 -29 -29 -29 0 -166 0 -166 -186 0 c-121 0
-183 -3 -179 -10 4 -7 245 -10 691 -10 649 0 684 1 674 18 -5 9 -37 75 -70
146 -128 274 -336 529 -610 750 -416 335 -974 553 -1521 595 -225 18 -242 18
-299 10z m1908 -1145 l32 -5 0 -154 c0 -123 -3 -157 -15 -169 -21 -21 -108
-29 -228 -22 -56 4 -112 7 -124 7 -23 1 -23 2 -23 173 0 95 2 175 4 177 6 6
313 0 354 -7z"/>
<path d="M5828 5933 c28 -2 76 -2 105 0 28 2 5 3 -53 3 -58 0 -81 -1 -52 -3z"/>
<path d="M5772 5905 c-4 -5 -8 -65 -10 -132 l-4 -122 123 -3 c182 -4 165 -19
161 130 -2 70 -4 128 -5 129 -8 7 -260 6 -265 -2z m228 -82 c0 -21 3 -62 6
-90 l7 -53 -117 0 -116 0 0 83 c0 46 3 87 7 90 3 4 53 7 110 7 l103 0 0 -37z"/>
<path d="M5580 6866 c0 -2 33 -23 73 -46 403 -238 769 -590 965 -929 23 -40
42 -75 42 -78 0 -2 19 -34 43 -71 85 -132 200 -397 262 -607 40 -136 64 -248
91 -435 22 -144 25 -511 6 -655 -38 -293 -83 -494 -137 -620 -7 -16 -25 -61
-40 -100 -15 -38 -39 -91 -52 -117 -23 -47 -25 -48 -68 -48 -25 0 -45 -4 -45
-10 0 -15 73 -12 96 5 33 23 132 266 182 445 26 95 67 316 82 440 14 119 14
423 0 578 -23 251 -113 610 -205 817 -62 140 -101 217 -144 288 -27 45 -66
114 -86 152 -105 198 -351 482 -585 676 -207 171 -480 350 -480 315z"/>
<path d="M2249 6283 c-13 -16 -12 -17 4 -4 16 13 21 21 13 21 -2 0 -10 -8 -17
-17z"/>
<path d="M4068 6203 c79 -2 205 -2 280 0 75 1 11 3 -143 3 -154 0 -216 -2
-137 -3z"/>
<path d="M4518 6203 c12 -2 32 -2 45 0 12 2 2 4 -23 4 -25 0 -35 -2 -22 -4z"/>
<path d="M3795 6133 c-124 -96 -209 -179 -347 -341 -79 -92 -158 -186 -176
-210 l-33 -42 36 0 c19 0 38 0 42 0 4 0 8 6 9 13 0 6 2 17 2 24 1 6 30 33 65
60 34 26 147 129 251 230 104 100 204 189 222 198 27 13 88 15 372 15 218 0
351 -4 369 -11 15 -6 113 -95 218 -198 104 -102 213 -204 240 -226 28 -22 73
-61 102 -87 28 -26 60 -48 70 -49 10 -1 62 -2 115 -3 121 -1 128 18 8 22 -73
3 -88 6 -127 33 -24 17 -96 90 -161 162 -171 193 -317 341 -398 403 l-70 54
-375 0 -374 0 -60 -47z"/>
<path d="M2050 6125 c-7 -9 -11 -17 -9 -20 3 -2 10 5 17 15 14 24 10 26 -8 5z"/>
<path d="M1994 6048 c-4 -7 -14 -24 -22 -38 -14 -24 -13 -24 3 -5 20 24 37 55
31 55 -3 0 -8 -6 -12 -12z"/>
<path d="M1798 5748 c-41 -62 -152 -289 -180 -368 -11 -30 -28 -73 -37 -95
-34 -77 -100 -341 -121 -480 -56 -382 -48 -699 29 -1065 32 -157 56 -237 109
-370 83 -206 102 -230 188 -230 30 0 54 5 54 10 0 6 -24 10 -53 10 -61 0 -71
8 -109 85 -35 69 -103 254 -132 355 -122 426 -134 960 -31 1397 52 220 130
427 246 651 43 83 77 152 75 152 -2 0 -19 -24 -38 -52z"/>
<path d="M4005 5594 c-182 -40 -261 -70 -403 -156 -155 -93 -294 -232 -407
-408 -88 -136 -119 -207 -186 -430 -21 -70 -19 -414 3 -506 44 -179 121 -369
188 -459 16 -22 45 -62 64 -90 70 -101 241 -247 346 -296 36 -17 74 -34 85
-39 11 -5 56 -25 99 -44 43 -20 84 -36 91 -36 7 0 39 -8 71 -19 124 -39 225
-53 355 -48 140 6 206 16 263 40 21 9 49 17 63 17 13 0 41 9 61 20 20 11 93
46 162 79 126 60 243 144 306 221 16 19 51 55 77 79 27 25 53 54 59 65 14 27
19 68 7 60 -5 -3 -9 -13 -9 -23 0 -18 -46 -68 -58 -63 -4 1 -7 -2 -7 -8 0 -5
-3 -9 -6 -7 -10 4 -39 -25 -34 -33 6 -9 -12 -23 -34 -27 -8 -1 -26 -14 -40
-29 -24 -26 -24 -27 -2 -9 14 11 21 15 17 8 -3 -7 -21 -22 -39 -35 -28 -19
-30 -20 -17 -3 8 11 -1 7 -20 -9 -19 -16 -34 -32 -33 -36 1 -4 -3 -7 -10 -7
-21 0 -147 -89 -140 -98 5 -4 3 -5 -4 -1 -15 8 -144 -55 -136 -67 3 -5 -4 -6
-17 -2 -16 5 -20 4 -15 -5 5 -9 1 -10 -15 -5 -16 5 -20 4 -15 -5 5 -9 1 -10
-15 -5 -16 5 -20 4 -15 -5 5 -9 1 -10 -15 -5 -16 5 -20 4 -15 -4 5 -8 -2 -10
-22 -6 -22 5 -25 4 -13 -5 12 -9 7 -10 -20 -5 -22 4 -30 3 -22 -3 19 -13 -79
-32 -199 -39 -106 -6 -272 4 -264 17 3 4 -4 6 -15 3 -11 -3 -28 -2 -37 2 -10
5 -26 7 -37 6 -11 -2 -16 2 -12 8 5 7 -3 11 -21 11 -34 0 -173 40 -173 50 0 4
-19 15 -42 24 -159 65 -264 135 -380 251 -167 167 -259 345 -320 616 -30 138
-33 417 -4 519 76 274 160 430 330 607 114 120 195 180 331 248 220 109 484
148 739 110 117 -18 123 -18 110 -6 -36 35 -415 52 -539 25z"/>
<path d="M2390 5550 c-34 -5 -19 -7 59 -8 57 -1 102 0 100 2 -9 8 -117 12
-159 6z"/>
<path d="M2890 5550 c-10 -7 21 -10 95 -9 71 0 103 3 90 9 -28 12 -167 12
-185 0z"/>
<path d="M3100 5550 c0 -13 50 -13 70 0 11 7 4 10 -27 10 -24 0 -43 -4 -43
-10z"/>
<path d="M6465 5549 c-69 -5 -62 -6 57 -7 80 -1 139 2 143 8 6 10 -54 10 -200
-1z"/>
<path d="M1878 5543 c7 -3 16 -2 19 1 4 3 -2 6 -13 5 -11 0 -14 -3 -6 -6z"/>
<path d="M2583 5543 c15 -2 39 -2 55 0 15 2 2 4 -28 4 -30 0 -43 -2 -27 -4z"/>
<path d="M4125 5540 c39 -5 30 -7 -45 -6 -96 0 -226 -27 -214 -45 3 -5 -1 -6
-9 -4 -16 7 -92 -23 -83 -32 4 -4 -28 -24 -70 -45 -221 -112 -436 -335 -537
-556 -85 -186 -112 -327 -104 -542 6 -157 21 -244 69 -390 181 -556 831 -887
1433 -729 221 57 401 165 628 374 l87 80 -1 215 c-1 118 -4 294 -8 390 l-6
175 -80 7 c-151 13 -245 16 -245 9 0 -5 -126 -7 -280 -5 -262 2 -279 2 -285
-15 -3 -10 -5 -91 -3 -180 l2 -161 259 0 259 0 -6 -22 c-3 -13 -6 -74 -6 -136
l0 -113 -32 -31 c-18 -17 -26 -27 -18 -23 10 6 8 1 -4 -13 -11 -12 -28 -22
-38 -22 -13 0 -17 -4 -12 -12 4 -7 4 -10 -1 -6 -11 10 -47 -11 -40 -22 3 -6 0
-7 -8 -4 -8 3 -21 -3 -28 -13 -8 -10 -21 -18 -29 -18 -8 0 -14 -5 -13 -12 2
-8 -4 -10 -14 -6 -9 4 -14 2 -11 -3 4 -5 -6 -10 -20 -11 -14 0 -31 -8 -36 -15
-6 -8 -17 -13 -25 -10 -8 2 -11 0 -8 -5 3 -5 -2 -9 -11 -10 -32 -2 -83 -12
-91 -18 -37 -22 -282 -24 -381 -2 -176 39 -369 170 -467 317 -52 77 -104 189
-124 269 -30 114 -31 317 -1 434 47 189 153 341 307 439 327 208 715 192 1006
-41 42 -34 83 -61 91 -61 31 0 90 55 162 151 49 65 73 106 69 114 -13 22 -134
128 -190 165 -28 19 -49 38 -46 42 2 4 -2 5 -10 2 -8 -3 -18 0 -23 7 -4 8 -3
10 4 5 7 -4 12 -5 12 -2 0 7 -96 56 -107 56 -4 -1 8 -9 27 -20 19 -11 31 -19
25 -19 -14 0 -82 38 -70 39 6 0 -1 7 -15 15 -14 8 -38 12 -55 10 -21 -4 -25
-3 -11 3 25 11 -130 51 -189 50 -22 -1 -83 0 -135 2 l-95 4 70 6 c53 5 35 7
-75 7 -94 0 -127 -3 -95 -7z m-78 -16 c-3 -3 -12 -4 -19 -1 -8 3 -5 6 6 6 11
1 17 -2 13 -5z m466 -11 c-7 -2 -19 -2 -25 0 -7 3 -2 5 12 5 14 0 19 -2 13 -5z"/>
<path d="M4625 5543 c6 -6 33 -18 60 -26 l50 -17 -24 20 c-13 11 -31 20 -41
20 -10 0 -27 3 -37 6 -12 5 -15 4 -8 -3z"/>
<path d="M5618 5543 c45 -2 119 -2 165 0 45 1 8 3 -83 3 -91 0 -128 -2 -82 -3z"/>
<path d="M5993 5543 c64 -2 170 -2 235 0 64 1 11 3 -118 3 -129 0 -182 -2
-117 -3z"/>
<path d="M1769 5445 c-22 -47 -55 -126 -74 -176 -27 -72 -31 -91 -19 -96 7 -3
151 -3 319 -1 l305 3 2 -980 3 -980 173 -3 172 -2 0 979 0 979 189 4 189 3 58
45 c58 45 244 263 244 286 0 21 -116 24 -822 24 l-699 0 -40 -85z"/>
<path d="M5480 4370 l0 -1160 180 0 180 0 1 258 c0 141 1 345 2 452 l2 195
283 3 282 2 0 164 0 163 -67 6 c-38 4 -163 7 -279 7 -184 0 -213 2 -218 16 -3
9 -6 169 -6 357 l0 342 505 -3 c444 -2 505 -1 505 13 0 23 -46 140 -97 248
l-46 97 -614 0 -613 0 0 -1160z"/>
<path d="M4770 5480 c41 -23 60 -26 40 -6 -8 7 -28 16 -45 20 l-30 6 35 -20z"/>
<path d="M3010 5140 c-8 -6 -42 -8 -75 -6 -33 3 -51 2 -40 -2 11 -4 -29 -9
-90 -12 l-110 -5 3 -975 c2 -599 7 -976 13 -978 5 -2 9 355 9 946 l0 949 103
6 c101 5 163 22 200 55 29 26 19 43 -13 22z"/>
<path d="M1683 5133 c20 -2 54 -2 75 0 20 2 3 4 -38 4 -41 0 -58 -2 -37 -4z"/>
<path d="M1923 5133 c65 -2 168 -2 230 0 62 1 9 3 -118 3 -126 0 -177 -2 -112
-3z"/>
<path d="M5963 5133 c15 -2 37 -2 50 0 12 2 0 4 -28 4 -27 0 -38 -2 -22 -4z"/>
<path d="M6243 5133 c114 -2 300 -2 415 0 114 1 20 2 -208 2 -228 0 -322 -1
-207 -2z"/>
<path d="M1621 5033 c-55 -237 -72 -407 -72 -704 0 -316 36 -585 107 -804 37
-117 116 -276 159 -324 35 -38 40 -41 54 -26 14 14 14 18 -1 43 -65 102 -136
288 -169 440 -39 182 -47 233 -64 422 -30 337 -9 676 57 938 l11 42 268 0 269
0 0 -937 c0 -516 4 -944 8 -950 6 -9 20 -10 52 -4 25 5 34 9 21 10 -13 1 -32
11 -42 23 -18 20 -19 47 -20 487 0 256 -1 682 -2 946 l-2 480 -307 3 -306 2
-21 -87z"/>
<path d="M4081 5109 c-34 -8 -41 -13 -30 -21 10 -7 6 -8 -14 -3 -17 3 -26 2
-23 -4 3 -5 -2 -7 -11 -5 -25 7 -165 -64 -241 -120 -35 -26 -62 -49 -60 -52 3
-2 -13 -23 -35 -46 -194 -204 -242 -576 -110 -843 87 -176 220 -310 372 -379
116 -52 211 -69 346 -63 137 6 233 30 338 82 86 44 201 130 216 161 17 38 15
220 -3 227 -7 3 -107 6 -221 7 -152 0 -205 -2 -200 -11 6 -8 2 -8 -13 0 -27
14 -39 -3 -18 -25 9 -8 16 -22 16 -30 0 -12 35 -14 210 -14 l210 0 11 -24 c7
-15 9 -43 5 -69 -6 -40 -14 -51 -60 -86 -29 -23 -57 -41 -62 -41 -5 0 -30 -15
-55 -33 -40 -28 -104 -53 -224 -87 -127 -35 -383 -11 -508 49 -135 64 -256
186 -330 331 -62 121 -72 165 -72 310 0 129 8 170 52 300 33 95 63 139 152
223 90 85 127 108 226 145 148 55 159 57 350 57 206 -1 205 -1 414 -115 61
-33 113 -60 116 -60 10 0 5 29 -7 36 -7 5 -8 3 -3 -7 5 -8 -12 7 -38 32 -78
79 -248 161 -359 174 -91 12 -295 14 -337 4z"/>
<path d="M6804 5103 c3 -10 10 -47 16 -83 6 -36 15 -87 21 -115 63 -316 61
-779 -5 -1110 -34 -170 -38 -191 -46 -215 -4 -14 -18 -59 -30 -100 -27 -94
-57 -173 -87 -227 -28 -50 -22 -73 19 -73 27 0 32 6 69 84 154 329 239 822
210 1222 -13 195 -42 398 -74 534 l-22 95 -39 3 c-33 3 -37 1 -32 -15z"/>
<path d="M5880 4536 c0 -19 88 -26 349 -26 l226 1 -24 19 c-22 19 -39 20 -287
20 -216 0 -264 -2 -264 -14z"/>
<path d="M4364 4503 c-17 -17 5 -18 451 -21 257 -1 471 0 474 4 3 3 -3 12 -13
20 -16 12 -95 14 -457 14 -403 0 -439 -1 -455 -17z"/>
<path d="M5888 4473 c7 -3 16 -2 19 1 4 3 -2 6 -13 5 -11 0 -14 -3 -6 -6z"/>
<path d="M6450 4270 c0 -164 -2 -189 -15 -184 -10 4 -15 0 -15 -11 0 -15 -21
-16 -257 -14 -230 2 -258 1 -267 -14 -8 -13 -6 -20 9 -32 17 -14 48 -15 240
-10 171 5 227 10 255 22 72 33 70 25 70 240 0 122 -4 193 -10 193 -6 0 -10
-70 -10 -190z"/>
<path d="M5880 3761 c0 -6 5 -13 10 -16 6 -3 10 1 10 9 0 9 -4 16 -10 16 -5 0
-10 -4 -10 -9z"/>
<path d="M5888 3688 c5 -71 10 -77 11 -15 0 31 -2 57 -7 57 -4 0 -6 -19 -4
-42z"/>
<path d="M5880 3205 c0 -15 -4 -24 -10 -20 -6 4 -9 1 -8 -7 4 -18 -397 -25
-418 -7 -8 7 -14 7 -14 1 0 -29 40 -39 190 -47 132 -7 248 7 268 32 14 20 16
59 2 68 -6 4 -10 -5 -10 -20z"/>
<path d="M5593 3173 c26 -2 67 -2 90 0 23 2 2 3 -48 3 -49 0 -68 -1 -42 -3z"/>
<path d="M5778 3173 c7 -3 16 -2 19 1 4 3 -2 6 -13 5 -11 0 -14 -3 -6 -6z"/>
<path d="M6763 3173 c9 -2 23 -2 30 0 6 3 -1 5 -18 5 -16 0 -22 -2 -12 -5z"/>
<path d="M4488 3133 c7 -3 16 -2 19 1 4 3 -2 6 -13 5 -11 0 -14 -3 -6 -6z"/>
<path d="M4428 3123 c7 -3 16 -2 19 1 4 3 -2 6 -13 5 -11 0 -14 -3 -6 -6z"/>
<path d="M4198 3113 c12 -2 32 -2 45 0 12 2 2 4 -23 4 -25 0 -35 -2 -22 -4z"/>
<path d="M4298 3113 c6 -2 18 -2 25 0 6 3 1 5 -13 5 -14 0 -19 -2 -12 -5z"/>
<path d="M1490 2791 c-54 -11 -60 -18 -60 -69 0 -29 4 -42 9 -34 4 7 6 25 3
39 -5 24 -3 25 44 23 171 -8 5544 1 5544 10 0 5 -16 17 -36 25 -32 13 -348 15
-2753 14 -1494 -1 -2732 -4 -2751 -8z"/>
<path d="M1823 2703 c9 -2 23 -2 30 0 6 3 -1 5 -18 5 -16 0 -22 -2 -12 -5z"/>
<path d="M1918 2703 c7 -3 16 -2 19 1 4 3 -2 6 -13 5 -11 0 -14 -3 -6 -6z"/>
<path d="M2013 2703 c15 -2 37 -2 50 0 12 2 0 4 -28 4 -27 0 -38 -2 -22 -4z"/>
<path d="M2198 2703 c12 -2 32 -2 45 0 12 2 2 4 -23 4 -25 0 -35 -2 -22 -4z"/>
<path d="M1495 2670 l-50 -6 40 -20 c39 -19 88 -19 2340 -24 1265 -3 2482 -3
2705 0 378 6 408 8 448 27 l42 20 -112 6 c-146 9 -5347 6 -5413 -3z"/>
<path d="M2720 2533 c-14 -2 -35 -12 -47 -21 -22 -16 -20 -17 66 -17 75 0 94
-3 118 -21 52 -39 64 -72 64 -182 0 -120 -16 -168 -74 -217 -38 -33 -39 -35
-16 -35 32 0 99 69 127 132 27 58 31 204 8 260 -36 84 -124 121 -246 101z"/>
<path d="M1595 2516 c-17 -12 -4 -14 105 -18 130 -4 154 -11 180 -52 20 -31
15 -125 -8 -155 -31 -42 -98 -71 -164 -71 l-58 0 0 -90 0 -90 -35 0 c-45 0
-44 -11 2 -31 28 -12 45 -14 63 -7 52 20 60 35 60 120 l0 78 50 0 c63 0 98 17
136 67 22 30 29 50 32 100 4 56 1 67 -22 98 -43 57 -70 65 -204 65 -85 0 -123
-4 -137 -14z"/>
<path d="M3592 2521 c-41 -11 -99 -64 -118 -110 -16 -39 -18 -175 -4 -239 12
-50 62 -117 102 -138 16 -8 57 -14 102 -14 69 0 78 3 117 33 63 48 89 105 96
215 6 85 4 95 -21 147 -15 30 -44 67 -63 82 -31 24 -47 28 -107 30 -39 1 -86
-2 -104 -6z m164 -30 c54 -24 83 -67 96 -141 23 -124 -16 -246 -92 -285 -38
-20 -53 -19 -17 1 41 22 29 26 -24 7 -40 -15 -54 -15 -105 -4 -78 17 -84 21
-108 67 -25 47 -34 178 -17 242 15 53 63 109 105 121 51 15 118 12 162 -8z"/>
<path d="M3615 2456 c-16 -8 -26 -15 -21 -15 5 -1 2 -9 -7 -19 -26 -28 -38
-72 -38 -138 -1 -118 36 -174 115 -174 79 0 130 76 129 192 -1 67 -20 117 -56
146 -22 19 -90 23 -122 8z m138 -168 c17 -89 -36 -144 -119 -124 -29 8 -54 57
-54 108 0 43 10 55 40 53 14 -1 34 1 45 6 11 5 33 7 50 6 27 -2 31 -6 38 -49z"/>
<path d="M4137 2523 c-41 -6 -122 -89 -136 -138 -13 -48 -14 -155 -1 -209 11
-50 56 -114 95 -137 21 -12 52 -18 101 -18 77 -1 121 18 153 69 l16 25 -29
-23 c-19 -14 -37 -20 -50 -17 -15 5 -17 4 -8 -3 11 -8 11 -10 -1 -15 -15 -6
-113 5 -152 17 -11 4 -6 0 10 -8 17 -8 46 -16 65 -16 19 -1 29 -4 22 -7 -7 -3
-33 -2 -58 2 -92 13 -154 106 -154 230 0 94 13 135 56 178 26 26 51 39 89 48
54 12 58 11 160 -25 13 -5 7 4 -15 23 -29 27 -41 31 -85 30 -27 -1 -63 -4 -78
-6z"/>
<path d="M2075 2510 c-4 -6 8 -10 32 -10 l38 0 0 -92 0 -93 45 -3 c51 -4 115
6 105 16 -6 7 -11 8 -52 10 -21 2 -22 7 -25 90 l-3 87 -67 3 c-38 2 -69 -1
-73 -8z"/>
<path d="M2315 2510 c-4 -6 8 -10 29 -10 l36 0 0 -215 c0 -184 -2 -215 -15
-215 -21 0 -19 -18 3 -23 9 -3 -3 -5 -28 -6 -31 -1 -41 -4 -33 -12 5 -5 37 -9
69 -7 l59 3 3 248 2 247 -59 0 c-33 0 -63 -4 -66 -10z"/>
<path d="M3075 2510 c-4 -7 44 -10 144 -10 l151 0 -6 -30 c-4 -20 -2 -30 5
-30 8 0 11 14 9 38 l-3 37 -147 3 c-92 2 -149 -1 -153 -8z"/>
<path d="M4504 2506 c-3 -7 -4 -113 -2 -235 3 -256 2 -251 95 -251 l53 0 0 64
c0 45 5 69 16 80 8 9 17 16 20 16 8 0 54 -80 54 -93 0 -8 9 -26 21 -41 16 -20
29 -26 59 -26 21 0 42 5 45 10 4 6 -11 10 -39 10 -36 0 -45 3 -44 18 1 9 -15
52 -36 95 -27 55 -45 81 -63 88 -52 19 -53 17 -53 -96 l0 -105 -39 0 -38 0 1
231 1 230 117 -3 c112 -3 119 -4 144 -29 34 -34 43 -102 20 -147 -9 -18 -23
-32 -32 -32 -26 0 -26 -27 1 -80 30 -60 40 -62 20 -5 -12 35 -12 43 3 65 59
91 57 168 -4 225 -26 24 -32 25 -171 25 -112 0 -145 -3 -149 -14z"/>
<path d="M5147 2502 c-9 -10 -30 -54 -46 -98 -15 -43 -49 -135 -75 -203 -26
-69 -46 -136 -44 -150 3 -22 9 -26 42 -29 59 -5 81 11 25 17 l-46 6 91 227 91
228 38 0 c23 0 36 4 32 10 -11 18 -90 12 -108 -8z"/>
<path d="M5542 2273 l3 -248 32 -3 c18 -2 41 1 50 7 15 8 11 10 -19 11 l-38 0
0 230 0 230 99 0 c107 0 142 -9 180 -43 22 -21 23 -21 20 -2 -2 10 -19 30 -38
42 -31 21 -45 23 -163 23 l-128 0 2 -247z"/>
<path d="M5987 2513 c-11 -10 -8 -429 3 -457 11 -29 47 -42 88 -30 l27 8 -30
5 -30 6 -4 228 -3 227 42 0 c25 0 39 4 35 10 -7 11 -118 14 -128 3z"/>
<path d="M6227 2513 c-4 -3 -7 -44 -7 -90 l0 -83 -50 0 c-27 0 -50 -4 -50 -10
0 -6 35 -10 84 -10 l85 0 -2 90 -2 90 48 0 c30 0 46 4 42 10 -7 11 -138 14
-148 3z"/>
<path d="M6490 2510 c-12 -8 -12 -14 4 -47 72 -149 89 -206 94 -315 4 -97 6
-108 23 -108 10 0 29 -5 43 -12 19 -8 32 -8 48 0 22 10 21 11 -9 11 l-33 1 0
93 0 92 -53 95 c-72 130 -80 142 -96 163 -13 16 -11 17 33 17 29 0 45 4 41 10
-8 13 -75 13 -95 0z"/>
<path d="M6732 2475 c-46 -46 -69 -54 -90 -33 -19 19 -14 2 18 -62 33 -65 45
-73 56 -37 3 12 24 52 46 90 36 62 41 67 73 67 19 0 35 5 35 10 0 6 -21 10
-46 10 -42 0 -51 -5 -92 -45z"/>
<path d="M2049 2364 c-3 -54 -2 -137 1 -184 6 -79 7 -80 8 -25 2 33 5 105 8
160 3 55 2 111 -3 124 -8 19 -11 2 -14 -75z"/>
<path d="M2710 2450 c-14 -4 -19 -8 -12 -9 7 -1 -1 -13 -18 -28 -37 -34 -50
-99 -41 -191 9 -83 40 -117 107 -117 34 0 49 5 60 19 21 29 17 36 -15 30 -55
-11 -87 51 -62 119 18 48 91 43 91 -7 0 -17 2 -18 10 -6 5 8 10 40 10 70 0 60
-19 100 -48 100 -13 0 -14 2 -4 9 10 6 8 10 -10 14 -27 8 -35 8 -68 -3z"/>
<path d="M4128 2444 c-16 -8 -28 -17 -28 -20 0 -2 9 0 19 6 31 16 31 12 2 -18
-33 -32 -46 -107 -35 -191 13 -98 82 -143 163 -106 45 20 64 50 59 91 -3 26
-7 29 -43 31 -22 1 -33 -1 -24 -3 13 -4 16 -14 14 -41 -5 -54 -32 -65 -86 -37
-37 19 -59 67 -59 128 0 94 34 118 138 94 50 -11 54 -10 75 10 12 12 16 22 10
22 -7 0 -29 11 -49 25 -43 29 -112 33 -156 9z m100 -1 c-10 -2 -28 -2 -40 0
-13 2 -5 4 17 4 22 1 32 -1 23 -4z m56 -18 c11 -8 16 -15 10 -15 -5 0 -18 7
-28 15 -11 8 -16 15 -10 15 5 0 18 -7 28 -15z"/>
<path d="M1572 2253 l-2 -203 26 0 c14 0 23 4 19 10 -3 6 -13 10 -20 10 -12 0
-15 34 -18 193 l-2 192 -3 -202z"/>
<path d="M1655 2427 c-4 -13 -5 -50 -3 -82 l3 -60 53 1 c29 1 59 7 67 14 22
18 29 74 14 114 -13 36 -14 36 -71 36 -52 0 -58 -2 -63 -23z"/>
<path d="M3072 2433 c2 -11 15 -20 33 -23 l30 -5 5 -172 c3 -94 8 -175 12
-178 4 -4 14 -5 21 -2 12 4 13 15 5 57 -5 28 -8 116 -6 195 l3 145 -53 0 c-45
0 -53 -3 -50 -17z"/>
<path d="M3246 2434 c-3 -9 -6 -101 -6 -205 l0 -189 -37 0 c-26 0 -34 -3 -26
-11 5 -5 32 -9 59 -7 l49 3 5 184 c5 193 4 190 53 205 16 5 17 8 3 21 -20 21
-92 20 -100 -1z"/>
<path d="M4637 2443 c-4 -3 -7 -35 -7 -70 l0 -63 59 0 c69 0 86 14 86 70 0 51
-22 70 -83 70 -27 0 -52 -3 -55 -7z"/>
<path d="M5650 2424 c6 -14 10 -53 10 -86 l0 -60 56 4 c68 6 86 22 85 79 0 69
-3 78 -19 71 -10 -3 -13 -1 -8 6 5 9 -12 12 -63 12 l-71 0 10 -26z m55 -54
c-3 -5 -10 -10 -16 -10 -5 0 -9 5 -9 10 0 6 7 10 16 10 8 0 12 -4 9 -10z"/>
<path d="M6364 2230 c0 -96 2 -136 3 -87 2 48 2 126 0 175 -1 48 -3 8 -3 -88z"/>
<path d="M5188 2317 c-14 -34 -30 -75 -33 -90 l-7 -27 71 0 c39 0 71 2 71 5 0
4 -31 93 -52 148 -6 15 -13 27 -17 27 -3 0 -18 -28 -33 -63z"/>
<path d="M4188 2288 c-2 -6 -2 -24 0 -40 5 -36 28 -31 24 6 l-3 26 86 0 c50 0
85 4 85 10 0 15 -187 13 -192 -2z"/>
<path d="M6114 2253 c1 -23 6 -28 26 -29 14 0 37 -1 53 -2 l27 -2 0 -94 c0
-76 3 -95 16 -100 22 -8 75 -6 99 4 16 7 14 9 -15 9 l-35 1 3 105 3 105 -65 0
c-44 0 -69 5 -80 15 -22 22 -33 18 -32 -12z"/>
<path d="M5800 2255 c-15 -9 -19 -14 -10 -15 13 0 13 -1 0 -10 -13 -8 -13 -10
1 -10 19 0 43 25 37 39 -2 5 -14 4 -28 -4z"/>
<path d="M2147 2254 c-4 -4 -7 -54 -7 -111 l0 -103 -36 0 c-21 0 -33 -4 -29
-10 3 -5 28 -10 56 -10 74 0 89 20 89 120 l0 80 40 0 c29 0 40 4 40 15 0 11
-12 15 -44 15 -24 0 -56 3 -72 6 -16 3 -32 2 -37 -2z"/>
<path d="M5669 2237 c5 -5 19 -7 32 -5 20 3 19 5 -9 9 -20 3 -29 2 -23 -4z"/>
<path d="M5193 2153 c20 -2 54 -2 75 0 20 2 3 4 -38 4 -41 0 -58 -2 -37 -4z"/>
<path d="M2570 2136 c0 -8 4 -17 9 -20 5 -4 7 3 4 14 -6 23 -13 26 -13 6z"/>
<path d="M4866 2087 c3 -10 9 -15 12 -12 3 3 0 11 -7 18 -10 9 -11 8 -5 -6z"/>
<path d="M2620 2065 c21 -23 68 -37 56 -17 -3 5 21 7 52 4 31 -2 55 -2 52 1
-3 3 -32 7 -65 8 -33 1 -70 8 -82 16 -34 20 -39 16 -13 -12z"/>
<path d="M5327 2057 c-4 -10 -7 -23 -7 -28 0 -12 87 -12 95 1 4 6 -10 10 -34
10 -30 0 -40 4 -43 18 -3 16 -4 16 -11 -1z"/>
<path d="M1448 1888 c-16 -12 -21 -42 -19 -97 1 -13 4 -21 8 -17 4 4 6 22 5
40 -2 20 4 38 13 46 10 8 15 9 15 1 0 -8 732 -11 2783 -11 l2782 1 -28 24 -28
25 -2758 0 c-2190 0 -2761 -3 -2773 -12z"/>
<path d="M1788 1803 c6 -2 18 -2 25 0 6 3 1 5 -13 5 -14 0 -19 -2 -12 -5z"/>
<path d="M1843 1803 c9 -2 25 -2 35 0 9 3 1 5 -18 5 -19 0 -27 -2 -17 -5z"/>
<path d="M1908 1803 c6 -2 18 -2 25 0 6 3 1 5 -13 5 -14 0 -19 -2 -12 -5z"/>
<path d="M1988 1803 c7 -3 16 -2 19 1 4 3 -2 6 -13 5 -11 0 -14 -3 -6 -6z"/>
<path d="M2028 1803 c6 -2 18 -2 25 0 6 3 1 5 -13 5 -14 0 -19 -2 -12 -5z"/>
<path d="M2433 1803 c9 -2 25 -2 35 0 9 3 1 5 -18 5 -19 0 -27 -2 -17 -5z"/>
<path d="M2533 1803 c26 -2 68 -2 95 0 26 2 4 3 -48 3 -52 0 -74 -1 -47 -3z"/>
<path d="M3153 1803 c9 -2 23 -2 30 0 6 3 -1 5 -18 5 -16 0 -22 -2 -12 -5z"/>
<path d="M3338 1803 c6 -2 18 -2 25 0 6 3 1 5 -13 5 -14 0 -19 -2 -12 -5z"/>
<path d="M3578 1803 c7 -3 16 -2 19 1 4 3 -2 6 -13 5 -11 0 -14 -3 -6 -6z"/>
<path d="M3708 1803 c6 -2 18 -2 25 0 6 3 1 5 -13 5 -14 0 -19 -2 -12 -5z"/>
<path d="M3873 1803 c9 -2 23 -2 30 0 6 3 -1 5 -18 5 -16 0 -22 -2 -12 -5z"/>
<path d="M3938 1803 c12 -2 30 -2 40 0 9 3 -1 5 -23 4 -22 0 -30 -2 -17 -4z"/>
<path d="M4148 1803 c29 -2 74 -2 100 0 26 2 2 3 -53 3 -55 0 -76 -1 -47 -3z"/>
<path d="M4908 1803 c7 -3 16 -2 19 1 4 3 -2 6 -13 5 -11 0 -14 -3 -6 -6z"/>
<path d="M5088 1803 c7 -3 16 -2 19 1 4 3 -2 6 -13 5 -11 0 -14 -3 -6 -6z"/>
<path d="M5718 1803 c6 -2 18 -2 25 0 6 3 1 5 -13 5 -14 0 -19 -2 -12 -5z"/>
<path d="M5868 1803 c7 -3 16 -2 19 1 4 3 -2 6 -13 5 -11 0 -14 -3 -6 -6z"/>
<path d="M6448 1803 c7 -3 16 -2 19 1 4 3 -2 6 -13 5 -11 0 -14 -3 -6 -6z"/>
<path d="M6518 1803 c12 -2 30 -2 40 0 9 3 -1 5 -23 4 -22 0 -30 -2 -17 -4z"/>
<path d="M4160 1780 c-1488 -3 -2700 -6 -2695 -8 6 -1 3 -6 -4 -11 -12 -8 -8
-11 15 -16 16 -3 43 -10 59 -15 44 -14 5339 -14 5365 0 10 5 31 10 47 10 33 0
76 27 67 41 -3 6 -38 9 -77 7 -40 -2 -1289 -5 -2777 -8z"/>
</g>
</svg>
